<?xml version="1.0" encoding="UTF-8" standalone="no"?>
<svg
   version="1.0"
   width="186.000000pt"
   height="184.000000pt"
   viewBox="0 0 186.000000 184.000000"
   preserveAspectRatio="xMidYMid meet"
   id="svg9"
   sodipodi:docname="bayer_logo.svg"
   inkscape:export-filename="bayer_logo.png"
   inkscape:export-xdpi="96"
   inkscape:export-ydpi="96"
   inkscape:version="1.3 (0e150ed, 2023-07-21)"
   xmlns:inkscape="http://www.inkscape.org/namespaces/inkscape"
   xmlns:sodipodi="http://sodipodi.sourceforge.net/DTD/sodipodi-0.dtd"
   xmlns="http://www.w3.org/2000/svg"
   xmlns:svg="http://www.w3.org/2000/svg">
  <defs
     id="defs9" />
  <sodipodi:namedview
     id="namedview9"
     pagecolor="#ffffff"
     bordercolor="#000000"
     borderopacity="0.25"
     inkscape:showpageshadow="2"
     inkscape:pageopacity="0.0"
     inkscape:pagecheckerboard="0"
     inkscape:deskcolor="#d1d1d1"
     inkscape:document-units="pt"
     inkscape:zoom="0.96195652"
     inkscape:cx="123.70621"
     inkscape:cy="122.66667"
     inkscape:window-width="1312"
     inkscape:window-height="449"
     inkscape:window-x="40"
     inkscape:window-y="86"
     inkscape:window-maximized="0"
     inkscape:current-layer="svg9" />
  <g
     transform="translate(0.000000,184.000000) scale(0.100000,-0.100000)"
     fill="#000000"
     stroke="none"
     id="g9">
    <path
       d="M840 1461 l0 -111 88 0 c73 0 92 3 105 18 19 21 22 73 6 89 -8 8 -8 13 0 17 18 11 13 52 -9 71 -16 14 -42 20 -105 23 l-85 5 0 -112z m155 39 c0 -12 -13 -15 -55 -15 -45 0 -55 3 -58 18 -3 16 3 18 55 15 44 -2 58 -7 58 -18z m2 -76 c8 -22 -14 -34 -64 -34 -44 0 -59 11 -49 35 8 22 104 21 113 -1z"
       id="path1" />
    <path
       d="M855 1190 c-55 -109 -55 -110 -30 -110 14 0 29 8 35 20 9 17 21 20 73 20 51 0 64 -3 75 -20 7 -11 23 -20 37 -20 25 0 25 1 -30 110 -48 96 -58 110 -80 110 -22 0 -32 -14 -80 -110z m83 -18 c-40 -4 -43 0 -22 39 l17 33 17 -35 18 -34 -30 -3z"
       id="path2" />
    <path
       d="M300 919 l0 -111 90 4 c102 4 124 16 121 70 0 18 -1 52 -1 75 0 60 -23 73 -127 73 l-83 0 0 -111z m158 49 c3 -15 -5 -18 -52 -18 -50 0 -56 2 -56 21 0 18 5 20 52 17 41 -2 54 -7 56 -20z m0 -85 c-2 -14 -15 -19 -56 -21 -47 -3 -52 -1 -52 17 0 19 6 21 56 21 47 0 55 -3 52 -17z"
       id="path3" />
    <path
       d="M605 920 c-55 -109 -55 -110 -30 -110 14 0 29 8 35 20 9 17 21 20 73 20 51 0 64 -3 75 -20 13 -21 52 -28 52 -10 0 6 -23 55 -50 110 -43 86 -54 100 -75 100 -22 0 -32 -14 -80 -110z m100 20 c20 -39 20 -40 -20 -40 -19 0 -35 2 -35 5 0 9 30 65 35 65 2 0 11 -13 20 -30z"
       id="path4" />
    <path
       d="M810 1024 c0 -3 23 -34 50 -69 42 -52 50 -70 50 -104 0 -37 2 -41 25 -41 23 0 25 4 25 41 0 34 8 52 50 105 28 35 50 66 50 69 0 3 -11 5 -25 5 -19 0 -34 -13 -61 -50 l-36 -51 -37 50 c-28 39 -42 50 -63 51 -16 0 -28 -3 -28 -6z"
       id="path5" />
    <path
       d="M1100 920 l0 -110 100 0 100 0 0 25 c0 24 -2 25 -75 25 -68 0 -75 2 -75 20 0 18 7 20 76 20 72 0 75 1 72 23 -3 20 -9 22 -76 25 -63 2 -73 5 -70 20 3 14 17 18 76 20 64 3 72 5 72 22 0 19 -7 20 -100 20 l-100 0 0 -110z"
       id="path6" />
    <path
       d="M1372 923 c3 -103 4 -108 26 -111 20 -3 22 1 22 42 0 41 2 46 23 46 16 0 34 -14 56 -45 23 -32 39 -45 57 -45 30 0 30 5 -2 47 l-25 33 20 26 c12 15 21 39 21 55 0 44 -31 59 -123 59 l-78 0 3 -107z m145 51 c8 -21 -13 -34 -54 -34 -29 0 -33 3 -33 25 0 23 4 25 40 25 28 0 43 -5 47 -16z"
       id="path7" />
    <path
       d="M840 655 l0 -115 95 0 c95 0 95 0 95 25 0 24 -2 25 -70 25 -63 0 -70 2 -70 20 0 18 7 20 70 20 68 0 70 1 70 25 0 24 -2 25 -70 25 -63 0 -70 2 -70 20 0 18 7 20 70 20 68 0 70 1 70 25 0 25 0 25 -95 25 l-95 0 0 -115z"
       id="path8" />
    <path
       d="M830 380 l0 -110 25 0 c23 0 25 4 25 40 0 39 1 40 34 40 28 0 40 -7 66 -40 24 -31 39 -40 62 -40 l30 0 -31 39 -31 39 20 35 c16 27 18 40 11 60 -15 38 -40 47 -130 47 l-81 0 0 -110z m161 54 c18 -21 -3 -34 -58 -34 -44 0 -59 11 -49 35 8 21 89 20 107 -1z"
       id="path9" />
  </g>
</svg>
