<?xml version="1.0" standalone="no"?>
<!DOCTYPE svg PUBLIC "-//W3C//DTD SVG 20010904//EN"
 "http://www.w3.org/TR/2001/REC-SVG-20010904/DTD/svg10.dtd">
<svg version="1.0" xmlns="http://www.w3.org/2000/svg"
 width="196.000000pt" height="136.000000pt" viewBox="0 0 196.000000 136.000000"
 preserveAspectRatio="xMidYMid meet">

<g transform="translate(0.000000,136.000000) scale(0.100000,-0.100000)"
fill="#000000" stroke="none">
<path d="M0 680 l0 -680 980 0 980 0 0 680 0 680 -980 0 -980 0 0 -680z m612
210 c21 -6 44 -21 53 -33 22 -32 19 -92 -6 -115 l-20 -20 25 -25 c21 -21 26
-36 26 -75 0 -57 -22 -84 -85 -101 -38 -10 -343 -15 -317 -4 17 7 17 354 0
371 -16 16 269 17 324 2z m261 -5 c-3 -9 11 -40 32 -72 l37 -56 40 62 c21 34
36 66 33 71 -4 6 27 10 80 10 l86 0 -34 -42 c-19 -24 -57 -78 -86 -120 -48
-73 -51 -81 -51 -142 0 -51 4 -67 18 -75 12 -8 -12 -10 -88 -10 -76 0 -100 2
-87 10 13 8 17 24 17 78 l0 69 -75 110 c-41 61 -81 113 -87 115 -7 3 28 6 79
6 79 1 92 -1 86 -14z m493 2 c-16 -12 -17 -27 -14 -129 4 -136 15 -158 79
-158 59 0 69 22 69 160 0 77 -4 120 -12 128 -9 9 9 12 82 12 52 0 90 -4 84 -8
-7 -4 -13 -57 -16 -138 -5 -147 -18 -183 -75 -217 -69 -40 -218 -39 -273 1
-53 40 -64 76 -70 225 l-5 137 84 0 c72 0 82 -2 67 -13z"/>
<path d="M430 780 l0 -40 44 0 c27 0 51 6 60 16 36 35 10 64 -56 64 l-48 0 0
-40z"/>
<path d="M430 635 l0 -45 49 0 c40 0 53 4 65 22 20 28 20 33 0 52 -10 10 -33
16 -65 16 l-49 0 0 -45z"/>
</g>
</svg>
