<?xml version="1.0" encoding="UTF-8" standalone="no"?>
<svg
   version="1.0"
   width="74.000000pt"
   height="61.000000pt"
   viewBox="0 0 74.000000 61.000000"
   preserveAspectRatio="xMidYMid meet"
   id="svg2"
   sodipodi:docname="chadwick_logo.svg"
   inkscape:version="1.3 (0e150ed, 2023-07-21)"
   xmlns:inkscape="http://www.inkscape.org/namespaces/inkscape"
   xmlns:sodipodi="http://sodipodi.sourceforge.net/DTD/sodipodi-0.dtd"
   xmlns="http://www.w3.org/2000/svg"
   xmlns:svg="http://www.w3.org/2000/svg">
  <defs
     id="defs2" />
  <sodipodi:namedview
     id="namedview2"
     pagecolor="#ffffff"
     bordercolor="#000000"
     borderopacity="0.25"
     inkscape:showpageshadow="2"
     inkscape:pageopacity="0.0"
     inkscape:pagecheckerboard="0"
     inkscape:deskcolor="#d1d1d1"
     inkscape:document-units="pt"
     inkscape:zoom="4.7050855"
     inkscape:cx="49.414617"
     inkscape:cy="40.594374"
     inkscape:window-width="1312"
     inkscape:window-height="835"
     inkscape:window-x="0"
     inkscape:window-y="25"
     inkscape:window-maximized="0"
     inkscape:current-layer="g2" />
  <metadata
     id="metadata1">&#10;Created by potrace 1.10, written by Peter Selinger 2001-2011&#10;</metadata>
  <g
     transform="translate(0.000000,61.000000) scale(0.100000,-0.100000)"
     fill="#000000"
     stroke="none"
     id="g2">
    <path
       d="m 296,449.46578 -88,-42 91,-42 c 91,-42 92,-42 126,-26 29.56733,21.96257 99.53276,48.01984 102,49 l 46,18 -93,43 c -51,24 -93,43 -94,43 0,0 -41,-19 -90,-43 z"
       id="path1"
       sodipodi:nodetypes="ccscccccccc" />
    <path
       d="M 210,232 V 95 l 85,-38 c 47,-20 90,-37 95,-37 5,0 48,17 95,38 l 85,37 v 137 161.50432 l -47.9701,-25.37608 c -39.15943,-18.35154 -78.61901,-28.4709 -110.59402,-58 C 380.43588,281.12824 390,262 390,156 390,98 386,50 381,50 c -5,0 -32,15 -59,34 -33,22 -54,30 -60,24 C 242,88 378.64983,46.657809 378.64983,46.657809 l -3.24385,259.944851 c 0,0 -13.40598,0.1495 -85.40598,35.1495 l -81.59402,46.9701 z"
       id="path2"
       sodipodi:nodetypes="cccsccccccsscsccccc" />
  </g>
</svg>
