<?xml version="1.0" standalone="no"?>
<!DOCTYPE svg PUBLIC "-//W3C//DTD SVG 20010904//EN"
 "http://www.w3.org/TR/2001/REC-SVG-20010904/DTD/svg10.dtd">
<svg version="1.0" xmlns="http://www.w3.org/2000/svg"
 width="144.000000pt" height="138.000000pt" viewBox="0 0 144.000000 138.000000"
 preserveAspectRatio="xMidYMid meet">

<g transform="translate(0.000000,138.000000) scale(0.100000,-0.100000)"
fill="#000000" stroke="none">
<path d="M605 1334 c-101 -23 -107 -30 -28 -37 77 -6 155 -33 215 -72 l40 -27
-28 -29 c-34 -36 -39 -36 -99 -2 -68 38 -177 44 -256 14 -72 -27 -136 -84
-174 -152 -27 -49 -30 -63 -30 -144 0 -106 22 -163 91 -232 57 -57 116 -85
191 -91 l63 -5 0 214 c0 118 4 219 8 224 4 6 25 26 47 44 l40 35 5 -242 5
-243 48 31 c26 16 50 30 52 30 2 0 16 -16 31 -35 l26 -35 -23 -20 c-13 -10
-50 -33 -81 -50 -56 -30 -58 -33 -58 -71 l0 -39 88 0 89 0 102 275 103 275 49
0 c42 0 51 -3 58 -22 4 -13 41 -113 82 -223 l73 -199 12 42 c7 23 16 76 19
119 25 283 -170 569 -445 654 -88 27 -226 33 -315 13z"/>
<path d="M122 904 c-20 -67 -32 -144 -32 -198 1 -134 67 -304 161 -409 90
-101 240 -183 380 -207 108 -19 106 -20 154 105 l42 110 -118 3 -119 3 0 79 0
80 -52 0 c-102 0 -201 44 -277 123 -77 80 -111 157 -121 277 l-6 75 -12 -41z"/>
<path d="M1105 799 c-3 -8 -36 -97 -74 -199 l-68 -185 145 -3 c80 -1 147 0
149 2 5 4 -133 386 -142 395 -3 2 -7 -2 -10 -10z"/>
<path d="M925 298 c-3 -7 -20 -53 -39 -103 -18 -49 -32 -92 -30 -94 5 -5 106
30 159 57 55 27 185 127 185 142 0 16 -270 13 -275 -2z"/>
</g>
</svg>
