<?xml version="1.0" encoding="UTF-8" standalone="no"?>
<svg
   version="1.1"
   width="1332.4486"
   height="1182.9149"
   id="svg392"
   sodipodi:docname="nuskin_logo.svg"
   inkscape:version="1.3 (0e150ed, 2023-07-21)"
   xmlns:inkscape="http://www.inkscape.org/namespaces/inkscape"
   xmlns:sodipodi="http://sodipodi.sourceforge.net/DTD/sodipodi-0.dtd"
   xmlns="http://www.w3.org/2000/svg"
   xmlns:svg="http://www.w3.org/2000/svg">
  <defs
     id="defs392" />
  <sodipodi:namedview
     id="namedview392"
     pagecolor="#ffffff"
     bordercolor="#000000"
     borderopacity="0.25"
     inkscape:showpageshadow="2"
     inkscape:pageopacity="0.0"
     inkscape:pagecheckerboard="0"
     inkscape:deskcolor="#d1d1d1"
     inkscape:zoom="0.43852551"
     inkscape:cx="1181.2312"
     inkscape:cy="645.34445"
     inkscape:window-width="1696"
     inkscape:window-height="971"
     inkscape:window-x="0"
     inkscape:window-y="25"
     inkscape:window-maximized="0"
     inkscape:current-layer="svg392">
    <inkscape:page
       x="0"
       y="0"
       width="1332.4486"
       height="1182.9149"
       id="page392"
       margin="0 0 0 0"
       bleed="0" />
  </sodipodi:namedview>
  <path
     d="m 633.95835,50.142399 c 1.91738,-0.005 3.83477,-0.0108 5.81031,-0.0162 4.04072,-0.008 8.08153,-0.0119 12.12225,-0.0117 6.07531,-0.003 12.15008,-0.0327 18.22521,-0.0632 29.68374,-0.0713 58.55068,1.25342 87.6477,7.39567 1.71152,0.34885 3.42313,0.69771 5.18652,1.05714 11.41027,2.36788 22.63988,5.12464 33.86249,8.25103 6.12754,1.60589 12.25346,2.70056 18.52162,3.61147 13.7627,2.91274 26.93348,8.62299 40.02646,13.61054 1.79929,0.67777 3.59857,1.35553 5.45242,2.05383 10.20452,3.88003 20.21106,8.01326 30.1127,12.60011 3.78578,1.766821 3.78578,1.766821 8.51103,3.233841 0,1.06121 0,2.12241 0,3.21578 1.35517,0.41038 2.71042,0.82078 4.10669,1.2436 6.2205,2.17405 12.05172,4.86806 17.93139,7.80078 1.70704,0.84876 1.70704,0.84876 3.44858,1.71466 10.8553,5.48105 21.0959,11.72185 31.3857,18.18297 3.6885,2.21326 7.3784,4.42413 11.0699,6.63255 6.8943,4.19632 13.4737,8.54341 19.8545,13.46609 3.7851,2.85367 7.69787,5.48606 11.62837,8.13993 5.95141,4.08463 10.88481,8.42464 15.94461,13.56658 1.8715,1.37278 3.7692,2.71113 5.6873,4.01972 5.1947,3.56295 9.3845,7.57404 13.8117,12.05918 2.428,2.12093 4.8663,4.23034 7.3121,6.33107 4.3467,3.77939 8.3498,7.50173 11.984,11.95868 3.3063,4.46967 3.3063,4.46967 8.3277,7.43648 0.7698,1.53042 0.7698,1.53042 1.5551,3.09173 2.001,3.9434 4.2278,5.78168 7.6868,8.54035 6.9775,5.85135 12.6679,12.27645 18.3819,19.31981 0.9845,1.19918 1.9691,2.39834 2.9836,3.63386 7.4665,9.15251 14.5757,18.48253 21.3902,28.12197 1.0536,1.44051 2.1072,2.88102 3.1927,4.36517 1.0243,1.41149 2.0486,2.82298 3.1039,4.27724 1.351,1.85919 1.351,1.85919 2.7294,3.75594 3.3487,5.24805 5.2475,10.67848 7.2232,16.54367 1.0725,0 2.1449,0 3.2499,0 1.0912,2.0728 2.1727,4.15062 3.25,6.23059 0.6031,1.15654 1.2064,2.31309 1.8279,3.50468 1.4218,3.12786 1.4218,3.12786 1.4218,6.34364 1.0725,0 2.1449,0 3.2499,0 6.1557,8.43271 10.676,17.72955 14.6243,27.33414 1.5126,3.25418 3.0374,6.50287 4.5701,9.74783 10.5212,22.49657 21.0464,45.09978 26.716,69.31513 1.1673,4.378 2.666,8.32777 4.4623,12.48627 3.3611,7.88309 5.2493,15.84352 7.0647,24.19373 0.8189,3.74623 1.7417,7.39304 2.7865,11.07936 3.1898,12.38703 5.1185,26.02628 4.7731,38.79036 -2.6148,-4.78782 -4.5003,-9.71699 -6.3414,-14.83844 -7.1475,-19.79088 -16.3356,-38.21127 -27.782,-55.90874 0,-1.0612 0,-2.12241 0,-3.21577 -1.6088,-0.53061 -3.2174,-1.06122 -4.8749,-1.6079 0,-1.59181 0,-3.18361 0,-4.82366 -1.0724,0 -2.1448,0 -3.2497,0 -6.4997,-8.70153 -6.4997,-8.70153 -6.4997,-12.86313 -1.0725,0 -2.1451,0 -3.2499,0 -1.8217,-2.19201 -1.8217,-2.19201 -3.9607,-5.32613 -7.8615,-10.74879 -17.6875,-20.63666 -28.2775,-28.76616 -1.1584,-0.95342 -2.3168,-1.90685 -3.5103,-2.88918 0,-1.06121 0,-2.12241 0,-3.21578 -1.1736,-0.43214 -2.3474,-0.86431 -3.5568,-1.30954 -4.5414,-1.89527 -8.4781,-4.09752 -12.6542,-6.67965 -1.4914,-0.9182 -2.9829,-1.83639 -4.5194,-2.78241 -1.5375,-0.9555 -3.0748,-1.91102 -4.6589,-2.89547 -1.55,-0.9555 -3.1001,-1.911 -4.6971,-2.89545 -5.7218,-3.53263 -11.4245,-7.06966 -17.0362,-10.7716 -2.0754,-0.76896 -4.1786,-1.46579 -6.2967,-2.11037 -8.3346,-2.63642 -16.4254,-5.80196 -24.5517,-9.00669 -4.3619,-1.55427 -8.4618,-2.60144 -13.0247,-3.35396 0,-1.06121 0,-2.12241 0,-3.21579 -1.0452,-0.0787 -2.0904,-0.15752 -3.1674,-0.23866 -8.2625,-0.67648 -16.3741,-1.60423 -24.5453,-3.00224 -11.08108,-1.70562 -21.91678,-2.2006 -33.12038,-2.18573 -1.9602,8.7e-4 -3.9204,0.003 -5.94,0.004 -30.5209,0.39219 -57.46046,7.79887 -85.70971,18.41105 -1.59405,0.58865 -3.18801,1.17728 -4.83034,1.78376 -1.48511,0.5534 -2.97022,1.10682 -4.50028,1.67699 -3.929,1.23733 -3.929,1.23733 -8.80386,1.23733 0,1.06119 0,2.1224 0,3.21577 -2.26216,0.84564 -2.26216,0.84564 -4.57009,1.70838 -14.34297,6.14351 -26.7943,15.68531 -38.91333,25.30268 -6.55524,5.14674 -6.55524,5.14674 -10.13909,5.14674 -0.40213,0.99488 -0.80434,1.98976 -1.21867,3.01479 -2.36636,3.98064 -4.27055,4.94626 -8.53086,6.63254 0,1.06121 0,2.12243 0,3.21579 -1.07249,0 -2.14488,0 -3.24985,0 -0.37915,0.87674 -0.7583,1.75348 -1.14894,2.65679 -2.67829,4.81208 -6.07522,8.57336 -9.71776,12.71865 -7.61301,8.83943 -13.95726,18.07537 -20.00691,28.0376 -0.83162,1.26432 -1.66315,2.52865 -2.5199,3.8313 -6.77321,10.49482 -11.34421,21.59542 -15.7534,33.19492 -1.19292,3.08597 -2.44676,6.14021 -3.72035,9.19433 -4.94198,12.06189 -8.69707,24.2194 -11.72355,36.88727 -0.3227,1.30383 -0.64541,2.60768 -0.97789,3.95102 -7.29784,32.3583 -6.43032,65.86608 -6.44262,98.82082 -0.009,6.7829 -0.0305,13.56572 -0.0529,20.34858 -0.0359,11.71227 -0.0601,23.42454 -0.0772,35.13684 -0.0242,16.93342 -0.0655,33.86674 -0.1111,50.8001 -0.0736,27.48254 -0.13317,54.96511 -0.18379,82.44769 -0.0494,26.67468 -0.10499,53.34931 -0.16978,80.02392 0,1.64805 -0.009,3.2962 -0.0117,4.99416 -0.0197,8.26908 -0.0404,16.53825 -0.061,24.80733 -0.16791,68.44884 -0.31302,136.89764 -0.44296,205.34674 -8.30723,3.3352 -15.37722,3.6084 -24.17075,3.4167 -1.27359,-0.015 -2.54709,-0.029 -3.85927,-0.044 -3.1146,-0.038 -6.22903,-0.095 -9.34328,-0.1571 -0.11181,-76.3613 -0.1976,-152.72274 -0.24893,-229.08423 -0.009,-9.03163 -0.0126,-18.06326 -0.0188,-27.09489 0,-1.79785 0,-3.59575 0,-5.44813 -0.0215,-29.04527 -0.0601,-58.09048 -0.10446,-87.13572 -0.0458,-29.84154 -0.0727,-59.68304 -0.0826,-89.52462 -0.009,-18.3881 -0.0278,-36.77609 -0.0673,-55.16415 -0.026,-12.63906 -0.0332,-25.27805 -0.0269,-37.91714 0,-7.27316 0,-14.5461 -0.0278,-21.81923 -0.16656,-48.26922 2.73159,-95.3234 18.45529,-141.42051 1.0724,0 2.14488,0 3.24985,0 0.21044,-1.66331 0.21044,-1.66331 0.42528,-3.36024 1.47092,-9.73494 3.79977,-17.11181 8.96879,-25.51269 2.24879,-3.55423 2.24879,-3.55423 4.31622,-8.812 11.02537,-24.87435 29.96302,-49.94779 51.28677,-66.82793 1.37401,-1.39282 2.74811,-2.78567 4.16384,-4.22071 3.4768,-3.35217 6.02578,-5.24674 10.46046,-7.03451 0,-1.06122 0,-2.12242 0,-3.21578 3.44027,-2.77613 3.44027,-2.77613 7.92153,-5.82861 1.47039,-1.0156 2.94087,-2.03122 4.45586,-3.07759 3.87183,-2.34904 3.87183,-2.34904 7.12167,-2.34904 0,-1.06121 0,-2.12242 0,-3.21578 2.14497,-0.53061 4.28984,-1.06121 6.49978,-1.60789 0,-1.06121 0,-2.12243 0,-3.21578 2.09471,-1.07977 4.19454,-2.1499 6.29652,-3.21578 1.16886,-0.59693 2.33763,-1.19386 3.54185,-1.80888 3.16101,-1.40689 3.16101,-1.40689 6.41085,-1.40689 0,-1.06122 0,-2.12242 0,-3.21579 7.54301,-4.07293 14.05813,-7.17948 22.749,-8.03945 0,-1.06121 0,-2.12241 0,-3.21578 17.09538,-6.74849 34.00616,-12.20791 51.99759,-16.07889 1.5919,-0.34616 3.18389,-0.69229 4.82398,-1.04892 15.53776,-2.95834 31.40069,-3.1887 47.17379,-3.77476 -4.2231,-7.01484 -8.5456,-13.96584 -12.8979,-20.90258 -0.6986,-1.12339 -1.3971,-2.24678 -2.1169,-3.40419 -3.8733,-6.16489 -7.8907,-11.92012 -12.60905,-17.49837 -1.09545,-1.34932 -2.191,-2.69862 -3.31966,-4.08881 -11.59333,-14.14646 -23.14278,-27.64734 -37.30348,-39.32423 -0.53628,-1.06121 -1.07248,-2.12241 -1.62492,-3.21579 -2.70028,-1.62098 -5.41069,-3.22538 -8.1247,-4.82366 -4.04252,-2.87898 -7.96245,-5.90406 -11.8822,-8.94389 -1.04835,-0.79487 -2.09678,-1.58973 -3.17689,-2.4087 -2.62723,-2.03297 -5.16696,-4.17562 -7.68982,-6.3342 0,-1.06121 0,-2.12241 0,-3.21578 -1.39088,-0.39174 -2.78167,-0.78348 -4.21464,-1.18708 -5.99032,-2.19559 -10.86823,-5.22312 -16.09693,-8.76174 -15.02499,-9.85445 -30.82515,-18.0604 -47.93533,-23.81688 0,-1.0612 0,-2.1224 0,-3.21577 -2.04437,-0.23214 -4.08874,-0.46428 -6.19502,-0.70346 -4.24785,-0.48234 -7.57523,-1.1587 -11.67921,-2.51232 0,-1.0612 0,-2.12241 0,-3.21578 -15.65874,-3.48236 -31.3487,-6.71695 -47.12283,-9.64734 -1.32403,-0.25209 -2.64814,-0.504181 -4.01237,-0.763911 -19.06993,-3.52928 -37.86749,-4.48922 -57.22701,-4.46173 -1.13342,0.001 -2.26683,0.002 -3.43453,0.003 -11.87556,-0.66459 -11.87556,-0.66459 -23.07206,2.00652 -2.82636,0.42782 -5.66421,0.78263 -8.50547,1.09915 -1.70506,0.19794 -3.41012,0.39588 -5.16678,0.59982 -3.58798,0.40534 -7.17642,0.80736 -10.76512,1.20592 -8.51875,0.994421 -16.24787,2.109221 -24.31047,5.134571 -3.75302,0.95558 -7.51106,1.89231 -11.27287,2.81381 -12.99435,3.30951 -25.12199,8.13962 -37.47488,13.26509 -2.87545,1.11047 -5.7527,2.21654 -8.63245,3.31627 -7.08659,2.78378 -13.81835,6.11501 -20.56545,9.62221 -3.30063,1.53253 -3.30063,1.53253 -6.55048,1.53253 0,1.06121 0,2.12241 0,3.21578 -9.34328,4.82366 -9.34328,4.82366 -12.99937,4.82366 0,1.06122 0,2.12242 0,3.21579 -3.39586,2.38042 -3.39586,2.38042 -8.02312,5.12514 -7.64872,4.65454 -14.65786,9.67719 -21.5874,15.31893 -2.88801,2.06639 -2.88801,2.06639 -6.13786,2.06639 0,1.0612 0,2.12241 0,3.21578 -2.66644,2.2997 -5.42711,4.49281 -8.22619,6.63255 -7.14977,5.62516 -13.15858,11.33853 -18.84531,18.39652 -0.71855,0.76067 -1.43692,1.52134 -2.17718,2.30506 -1.07249,0 -2.14488,0 -3.24985,0 0,1.06122 0,2.12242 0,3.21579 -1.07248,0 -2.14487,0 -3.24984,0 -0.43569,0.94928 -0.87138,1.89855 -1.32026,2.8766 -1.947,3.58705 -3.99343,6.02622 -6.80435,8.98158 -13.10411,14.50648 -29.53577,34.01488 -35.74838,52.45742 0.96982,-0.0373 1.93964,-0.0746 2.93881,-0.11311 46.18101,-0.9506 88.22437,14.84312 128.68015,35.48664 2.16452,1.07601 4.32986,2.15038 6.49968,3.21577 0,1.06121 0,2.12242 0,3.21578 2.14497,0.53061 4.28985,1.06122 6.49978,1.60789 0,1.06122 0,2.12242 0,3.21579 0.90691,0.43733 1.81392,0.87467 2.74838,1.32524 4.00581,2.01882 7.89227,4.16946 11.77433,6.41273 2.03288,1.15966 2.03288,1.15966 4.10678,2.34275 4.71763,3.18645 8.28004,6.74525 12.24403,10.82186 2.05989,1.99208 4.12535,3.97845 6.19511,5.96049 2.26836,2.20012 4.53645,4.40051 6.80436,6.60114 1.1353,1.08296 2.2706,2.16595 3.44027,3.28173 6.38572,6.22936 11.55187,12.29852 15.99651,20.02208 2.2199,3.58394 5.1413,6.25342 8.18689,9.15547 0,1.06121 0,2.12242 0,3.21578 1.07248,0 2.14497,0 3.24993,0 8.0775,13.71365 15.8086,27.48298 22.74891,41.80515 0.71846,1.45086 1.43692,2.90173 2.17719,4.39657 8.72622,18.16181 13.40984,37.30931 17.62663,56.90423 0.8336,3.8234 1.66926,7.64634 2.50716,11.4688 0.3586,1.66044 0.7172,3.32092 1.08666,5.0317 0.93859,4.34539 0.93859,4.34539 2.60121,9.02476 1.89333,15.45904 1.85313,31.0058 1.82028,46.55101 7.2e-4,2.53166 0,5.06331 0,7.59496 0,6.90081 0,13.80158 -0.0117,20.70236 -0.009,7.46263 0,14.92527 0,22.38791 8.9e-4,12.911 0,25.82198 -0.0135,38.73298 -0.0135,18.66686 -0.0171,37.33372 -0.0197,56.00058 0,30.28977 -0.0144,60.57954 -0.0296,90.86931 -0.0153,29.41413 -0.026,58.82825 -0.0332,88.24238 -6.2e-4,2.72214 -6.2e-4,2.72214 0,5.49928 0,9.10458 0,18.20916 -0.009,27.31382 -0.0171,75.46617 -0.0458,150.93221 -0.0817,226.39841 -12.6012,0.1597 -24.87871,0.097 -37.3733,-1.6079 0,-1.182 0,-2.3639 0,-3.5817 -0.0949,-70.1561 -0.21484,-140.31214 -0.36731,-210.46818 -0.0188,-8.43607 -0.0368,-16.87223 -0.0547,-25.3083 -0.009,-2.51902 -0.009,-2.51902 -0.0108,-5.089 -0.0574,-27.14167 -0.0978,-54.28333 -0.13191,-81.425 -0.0359,-27.87926 -0.0888,-55.75845 -0.15983,-83.63766 -0.0431,-17.18327 -0.0718,-34.36646 -0.0826,-51.54977 -0.01,-11.80594 -0.035,-23.61175 -0.0754,-35.41763 -0.0224,-6.79691 -0.0377,-13.59361 -0.0314,-20.39055 0.0413,-56.28617 -7.20173,-109.08374 -33.20532,-160.05401 0,-1.06122 0,-2.12241 0,-3.21579 -1.07249,0 -2.14497,0 -3.24994,0 -1.09115,-2.07278 -2.1726,-4.1506 -3.24984,-6.23056 -0.60323,-1.15656 -1.20647,-2.3131 -1.82801,-3.5047 -1.42184,-3.12785 -1.42184,-3.12785 -1.42184,-6.34362 -1.07239,0 -2.14487,0 -3.24984,0 -0.33509,-1.06122 -0.67027,-2.12244 -1.01559,-3.21579 -3.517,-7.59302 -8.61979,-14.50413 -14.73216,-20.28706 -2.12639,-2.2234 -2.12639,-2.2234 -2.12639,-5.43918 -1.40766,-0.54719 -1.40766,-0.54719 -2.84368,-1.10544 -4.62341,-2.66871 -6.80274,-6.00251 -10.15579,-10.14979 -4.20916,-3.89545 -8.61477,-7.55554 -12.99938,-11.25523 -2.23506,-1.97553 -4.46932,-3.95188 -6.70285,-5.92909 -3.84276,-3.35166 -7.65788,-6.33138 -11.98379,-9.04439 -1.34054,-0.8954 -2.68117,-1.79079 -4.06235,-2.71331 0,-1.06122 0,-2.12243 0,-3.21579 -1.13943,-0.13265 -2.27895,-0.2653 -3.45293,-0.40197 -4.67168,-1.20591 -4.67168,-1.20591 -9.0387,-4.12022 -5.78464,-3.78003 -11.42094,-6.01082 -17.86777,-8.43513 -3.76397,-1.51368 -3.76397,-1.51368 -8.02949,-4.12651 -5.41599,-3.10271 -10.75551,-4.09599 -16.85855,-5.42664 0,-1.0612 0,-2.1224 0,-3.21577 -1.07877,-0.0787 -2.15744,-0.15752 -3.26887,-0.23867 -1.43485,-0.12021 -2.86971,-0.24043 -4.34799,-0.36429 -1.41386,-0.11194 -2.82771,-0.22385 -4.28446,-0.33917 -4.34799,-0.66577 -4.34799,-0.66577 -8.11833,-2.17944 -5.74479,-2.24566 -11.59719,-3.20504 -17.65832,-4.21442 -1.14472,-0.2021 -2.28944,-0.40417 -3.4689,-0.61238 -32.88225,-5.62415 -70.38531,-7.75845 -101.84663,4.73258 -3.91661,1.04343 -7.8448,2.04513 -11.78071,3.0148 -9.58531,2.4644 -18.41007,5.35645 -27.21751,9.84833 -1.55842,0.77311 -3.11685,1.54621 -4.72248,2.34273 -21.4256,10.98648 -47.07033,24.91889 -62.18505,43.90296 -0.97826,1.18764 -1.95643,2.37528 -2.9643,3.5989 -1.07239,0 -2.14487,0 -3.24984,0 0,1.06122 0,2.12242 0,3.21579 -1.87467,1.85503 -3.7575,3.70269 -5.6809,5.50827 -3.80901,3.94538 -6.86987,8.4012 -10.0288,12.86312 -0.71424,0.8353 -1.42857,1.67058 -2.16444,2.53117 -1.07248,0 -2.14488,0 -3.24985,0 -0.64729,1.77213 -0.64729,1.77213 -1.3076,3.58007 -1.92393,4.41732 -4.10201,7.66617 -7.02018,11.49391 -12.0169,16.67209 -20.52345,34.80514 -27.42059,54.0653 -1.25197,3.38348 -2.50447,6.76676 -3.75769,10.1498 -0.91606,2.5116 -1.83087,5.02364 -2.742,7.53699 -0.53629,0 -1.07249,0 -1.62492,0 -0.83539,-12.87849 2.2391,-25.00459 5.07784,-37.48394 0.25684,-1.14541 0.51367,-2.2908 0.77832,-3.47094 4.11718,-18.30634 8.85599,-36.24921 15.26782,-53.91063 0.41711,-1.15914 0.83422,-2.31829 1.2639,-3.51255 4.06091,-11.20154 8.30983,-22.30346 13.36049,-33.11092 2.77091,-6.09425 5.22386,-12.32164 7.72473,-18.52842 1.92241,-4.12064 4.14994,-7.17295 6.89957,-10.77161 1.09851,-2.4779 2.11158,-4.99427 3.04676,-7.53699 3.14665,-8.12201 7.12007,-15.5291 11.57754,-23.01292 1.07248,0 2.14497,0 3.24984,0 0.46719,-1.17728 0.93429,-2.35456 1.41547,-3.5675 4.6926,-11.43962 10.54562,-21.8307 17.57594,-32.00707 0.63787,-0.93374 1.27583,-1.86748 1.93309,-2.82952 1.60311,-2.26932 3.32935,-4.45248 5.07435,-6.61684 1.07248,0 2.14487,0 3.24984,0 0.41478,-1.43428 0.82947,-2.86858 1.25681,-4.34632 2.01852,-5.36879 4.17973,-8.58734 7.88339,-12.9385 1.72184,-2.04573 1.72184,-2.04573 3.47841,-4.13277 1.79722,-2.13278 1.79722,-2.13278 3.63061,-4.30864 3.44072,-4.36892 6.874,-8.74321 10.29542,-13.12693 0.89238,-0.97415 1.78466,-1.9483 2.70405,-2.95197 1.07239,0 2.14487,0 3.24984,0 0.38534,-0.88711 0.77078,-1.77421 1.16788,-2.68819 2.58962,-4.65626 5.80169,-8.23763 9.39407,-12.1848 1.29037,-1.43429 2.58065,-2.86858 3.91006,-4.34633 3.40213,-3.29116 3.40213,-3.29116 6.65198,-3.29116 0.60323,-1.39284 0.60323,-1.39284 1.21876,-2.8138 2.32848,-4.14739 4.9304,-6.93195 8.53086,-10.04931 1.07239,0 2.14488,0 3.24984,0 0,-1.06121 0,-2.12242 0,-3.21578 2.55795,-2.55 2.55795,-2.55 5.99185,-5.42663 1.18556,-0.99902 2.37111,-1.99806 3.59265,-3.02735 3.80911,-3.12467 7.676,-6.1744 11.53949,-9.23282 0.77087,-0.76273 1.54164,-1.52548 2.33584,-2.31134 3.87641,-3.83578 7.97762,-7.1937 12.28855,-10.55177 1.07239,0 2.14487,0 3.24984,0 0,-1.06121 0,-2.12241 0,-3.21578 4.82604,-1.59181 4.82604,-1.59181 9.74953,-3.21578 0,-1.06121 0,-2.12243 0,-3.21578 1.03892,-0.16581 2.07784,-0.33164 3.14826,-0.50247 1.10596,-0.36479 2.212,-0.72958 3.35143,-1.10543 0.5362,-1.59181 1.07249,-3.18361 1.62492,-4.82367 9.63144,-8.26433 21.46437,-14.6345 32.19387,-21.40503 1.33928,-0.84862 2.67847,-1.69726 4.05831,-2.5716 1.28535,-0.80329 2.57069,-1.60659 3.89498,-2.43422 1.14742,-0.71986 2.29493,-1.43972 3.47716,-2.1814 3.76585,-2.10724 7.60807,-3.59138 11.62321,-5.17344 1.54165,-1.02804 3.08329,-2.05609 4.6716,-3.11529 5.30785,-3.46643 10.61785,-5.66564 16.45239,-8.13994 1.44948,-1.00316 2.89896,-2.00634 4.39241,-3.03991 6.06293,-3.83847 12.02166,-6.222751 18.76284,-8.617291 1.16877,-0.43112 2.33755,-0.86223 3.54177,-1.30641 8.57753,-3.11529 8.57753,-3.11529 12.3012,-3.11529 0,-1.06121 0,-2.12242 0,-3.21578 11.26075,-2.38772 11.26075,-2.38772 22.749,-4.82367 0,-1.06121 0,-2.12242 0,-3.21578 7.38676,-2.87151 14.52073,-5.29171 22.26018,-7.09105 4.55475,-1.15544 9.00586,-2.55767 13.48819,-3.9632 21.13969,-6.41992 42.06087,-10.79506 63.87989,-14.16953 1.12318,-0.17461 2.24637,-0.34921 3.40366,-0.52911 20.22398,-3.12073 39.99029,-5.0467 60.46994,-5.0671 z"
     fill="#038AAE"
     id="path2"
     style="fill:#000000;fill-opacity:1;stroke-width:1.61639" />
  <path
     d="m 325.79463,633.15905 c 44.17155,-1.72477 84.01583,10.02044 117.5969,39.47339 15.03055,16.93867 15.03055,16.93867 15.03055,21.80701 1.07239,0 2.14488,0 3.24984,0 14.05212,22.90404 23.49214,45.32354 28.48886,71.72386 0.48164,2.43873 1.00787,4.86956 1.59414,7.28577 3.42287,15.37035 2.84656,30.86608 2.78446,46.51376 -9e-4,3.25003 -3.6e-4,6.50006 8.9e-4,9.75008 9e-4,8.77901 -0.018,17.55788 -0.0413,26.33685 -0.0206,9.19095 -0.0224,18.38189 -0.026,27.57284 -0.01,17.38476 -0.0368,34.76944 -0.0691,52.15413 -0.0368,19.80023 -0.0539,39.60043 -0.0709,59.40073 -0.0341,40.71223 -0.0911,81.42473 -0.1635,122.13703 -2.87949,-0.7503 -5.75691,-1.5077 -8.63362,-2.2681 -1.60266,-0.4211 -3.20524,-0.8421 -4.85646,-1.2759 -4.81293,-1.4049 -8.75943,-3.2828 -13.0166,-5.9024 -6.83756,-3.9314 -13.52373,-6.6557 -21.0224,-9.1449 -7.50622,-2.5242 -13.30046,-4.9988 -19.42297,-9.9173 -6.30684,-4.4092 -13.71344,-7.1034 -20.79401,-10.0808 0,-1.0612 0,-2.1224 0,-3.2157 -1.40757,-0.4312 -2.81515,-0.8623 -4.26543,-1.3065 -5.35075,-1.8629 -10.21475,-4.1316 -15.23364,-6.733 0,-1.0612 0,-2.1224 0,-3.2158 -3.21735,-1.0612 -6.43471,-2.1224 -9.74962,-3.2157 0,-1.0613 0,-2.1225 0,-3.2158 -1.17299,-0.1327 -2.34598,-0.2654 -3.55451,-0.4021 -5.52762,-1.4585 -8.55868,-3.7787 -12.69471,-7.6374 0,-1.0612 0,-2.1224 0,-3.2158 -2.17736,-0.6187 -2.17736,-0.6187 -4.39869,-1.2499 -5.38395,-1.978 -8.60293,-4.0642 -12.9677,-7.694 -1.40129,-1.1523 -2.80267,-2.3048 -4.24641,-3.4922 -1.44741,-1.2021 -2.89474,-2.4043 -4.38604,-3.6428 -2.91126,-2.3113 -5.8226,-4.6226 -8.73395,-6.9339 -12.8627,-10.4317 -25.0502,-21.5825 -36.76396,-33.26323 -1.58965,-1.557 -3.18083,-3.1124 -4.77318,-4.6667 -1.65884,-1.6267 -3.3176,-3.2535 -4.97635,-4.8802 -0.82534,-0.8031 -1.65059,-1.6063 -2.50087,-2.4338 -5.49092,-5.3986 -10.6324,-10.899 -15.37336,-16.9614 0,-1.0612 0,-2.1223 0,-3.2157 -1.60868,-0.5307 -3.21736,-1.0613 -4.87477,-1.6079 -2.23048,-3.1727 -4.39421,-6.3921 -6.49969,-9.6474 -1.62133,-1.6114 -3.24652,-3.2191 -4.87476,-4.82359 -1.6444,-2.10508 -3.24536,-4.24369 -4.81132,-6.40648 -0.90072,-1.23945 -1.80135,-2.47891 -2.72935,-3.75593 -0.93007,-1.2892 -1.86004,-2.57839 -2.81829,-3.90664 -0.91741,-1.26433 -1.83482,-2.52874 -2.78014,-3.83133 -1.81356,-2.5008 -3.62406,-5.0038 -5.43134,-7.50915 -1.61496,-2.23407 -3.23719,-4.46315 -4.8692,-6.68513 -14.86695,-20.29633 -24.43306,-43.73425 -31.8078,-67.59458 -0.58852,-1.89856 -1.17712,-3.79712 -1.78358,-5.75322 -13.62882,-45.43647 -7.88025,-89.75806 14.2245,-131.13098 9.53048,-15.85637 23.15543,-30.35074 37.93175,-41.59159 1.07248,0 2.14497,0 3.24985,0 0,-1.06122 0,-2.12242 0,-3.21579 23.43407,-18.1094 52.62703,-26.14927 81.86279,-27.51471 z"
     fill="#008AAE"
     id="path3"
     style="fill:#000000;fill-opacity:1;stroke-width:1.61639" />
  <path
     d="m 1042.6691,654.87549 c 1.749,0.57619 3.498,1.15239 5.3,1.74605 3.8892,1.28462 7.3472,2.76628 10.9492,4.68551 0,1.06119 0,2.1224 0,3.21577 1.0725,0.33163 2.1449,0.66326 3.2498,1.00492 14.6393,6.63932 29.2882,19.10363 37.3734,32.76077 1.2736,0.96172 2.5471,1.92343 3.8592,2.9143 7.208,5.94371 11.5902,12.97134 13.7103,22.00801 0.1008,1.3265 0.2011,2.653 0.3047,4.01971 1.0724,0 2.1448,0 3.2498,0 5.566,11.82833 9.4269,22.25244 9.7495,35.37358 1.0725,0 2.1449,0 3.2499,0 2.0689,10.83585 1.924,21.46451 1.9296,32.4593 0.02,2.03225 0.039,4.06449 0.06,6.15834 0.028,17.53146 -2.7375,33.32455 -7.5756,50.1178 -0.4979,1.78923 -0.4979,1.78923 -1.0061,3.61462 -2.267,7.98765 -4.9966,15.68439 -8.0326,23.41804 -1.0725,0 -2.1449,0 -3.2497,0 -0.2033,0.8954 -0.4065,1.79079 -0.6158,2.71331 -1.1043,4.06885 -2.563,7.85183 -4.1576,11.7577 -0.5508,1.35967 -1.1016,2.71934 -1.6693,4.12023 -1.5155,3.53094 -3.1542,6.94315 -4.9319,10.35082 -1.0725,0 -2.1449,0 -3.2497,0 -0.3017,1.26012 -0.6034,2.52033 -0.9141,3.81872 -2.7558,6.87602 -6.6099,12.16696 -11.0191,18.10126 -2.7071,3.58201 -2.7071,3.58201 -4.1638,7.00941 -2.5116,4.5623 -6.1749,7.6227 -9.902,11.2678 -2.8233,3.3993 -5.4741,6.9189 -8.1246,10.4513 -5.0217,6.6927 -10.1947,12.6532 -16.2492,18.4907 -2.1871,2.3937 -4.3548,4.8049 -6.4998,7.2355 -4.7053,5.2862 -9.5903,10.2937 -14.6243,15.275 -1.039,1.35964 -2.0779,2.71934 -3.1483,4.12024 -3.3515,3.9193 -3.3515,3.9193 -7.8009,6.8021 -6.6902,4.4794 -12.2438,9.7475 -18.0582,15.2624 -6.41061,5.9731 -6.41061,5.9731 -9.99078,5.9731 0,1.0612 0,2.1224 0,3.2157 -5.6688,5.0876 -11.2977,8.9937 -17.8742,12.8632 -0.7708,0.7627 -1.5418,1.5255 -2.3359,2.3113 -3.6912,3.6526 -7.8595,6.2398 -12.2885,8.9439 -1.0724,0 -2.1449,0 -3.2499,0 0,1.0612 0,2.1224 0,3.2158 -3.2173,1.0612 -6.4347,2.1224 -9.7495,3.2158 0,1.0612 0,2.1225 0,3.2158 -1.5479,0.8539 -3.0958,1.7078 -4.6907,2.5876 -2.0589,1.1469 -4.1175,2.2943 -6.176,3.4419 -1.0169,0.5597 -2.0339,1.1193 -3.0817,1.6958 -4.7379,2.651 -8.96032,5.265 -13.21831,8.655 -4.96836,3.9061 -8.97436,4.7083 -15.08134,6.1301 0,1.0613 0,2.1224 0,3.2158 -3.21736,0.5306 -6.43472,1.0612 -9.74962,1.6079 0,1.0612 0,2.1224 0,3.2157 -4.09592,1.776 -8.1921,3.5513 -12.28846,5.3262 -1.14472,0.4964 -2.28945,0.9928 -3.46881,1.5043 -2.29357,0.9935 -4.5884,1.9841 -6.88449,2.9716 -2.19998,0.9523 -4.39385,1.9186 -6.58064,2.9001 -4.65185,2.06 -7.86481,3.3768 -13.02567,3.3768 0,1.0612 0,2.1224 0,3.2158 -3.6866,1.3492 -7.37671,2.6876 -11.06978,4.0197 -1.04413,0.3834 -2.08834,0.7669 -3.16415,1.1619 -4.69528,1.6851 -8.35371,2.8578 -13.38974,2.8578 -0.11415,-41.6105 -0.20003,-83.2211 -0.25262,-124.8318 -0.0251,-19.32334 -0.0592,-38.64634 -0.11513,-57.96954 -0.0485,-16.85419 -0.0799,-33.70829 -0.0909,-50.56253 -0.009,-8.91319 -0.0215,-17.82618 -0.0565,-26.7393 -0.0332,-8.41337 -0.0431,-16.82645 -0.0359,-25.23987 -9e-4,-3.06486 -0.01,-6.12973 -0.0296,-9.19452 -0.16548,-28.24464 3.22176,-54.75946 11.95561,-81.70874 0.48173,-1.61047 0.96354,-3.22094 1.45989,-4.88021 4.06837,-13.05778 10.00188,-24.87627 16.41425,-36.92493 1.07249,0 2.14497,0 3.24985,0 0.51843,-1.66953 0.51843,-1.66953 1.04735,-3.3728 2.85894,-6.05748 6.8145,-10.21137 11.44428,-15.01746 0.88726,-0.92997 1.77443,-1.85995 2.68852,-2.81811 45.02901,-46.76918 112.15131,-54.3492 171.68649,-31.852 z"
     fill="#018AAE"
     id="path4"
     style="fill:#000000;fill-opacity:1;stroke-width:1.61639" />
  <path
     d="m 1071.5573,479.27829 c 2.3285,0.85692 4.6629,1.69874 7.0073,2.51233 5.992,2.31135 5.992,2.31135 9.2419,5.52712 3.1928,1.42747 3.1928,1.42747 6.7029,2.61281 1.7657,0.62802 1.7657,0.62802 3.5671,1.26874 0.9007,0.31089 1.8014,0.6218 2.7294,0.94212 0,1.06122 0,2.12241 0,3.21579 0.9384,0.43318 1.8767,0.86637 2.8436,1.31268 18.8432,9.8084 38.7881,28.46817 49.154,46.92402 0,1.06121 0,2.12241 0,3.21579 1.0725,0 2.1449,0 3.2499,0 2.304,4.28668 4.6055,8.57457 6.9058,12.86311 0.9648,1.7939 0.9648,1.7939 1.9488,3.62403 1.2989,2.42338 2.5918,4.85007 3.8787,7.27986 1.2109,2.28429 2.4355,4.5616 3.6774,6.82962 4.1755,7.83458 6.7361,15.58761 8.8772,24.17212 0.3398,1.3462 0.6794,2.69241 1.0295,4.07939 0.6776,2.71676 1.3472,5.43555 2.0077,8.15642 0.7899,3.20109 1.6496,6.38519 2.5232,9.56492 7.5909,30.64811 5.5775,67.54788 -1.3965,98.18808 -0.2878,1.30733 -0.5755,2.61468 -0.8721,3.96163 -2.0591,9.1754 -4.5092,18.15425 -7.4557,27.09073 -0.6532,2.20799 -1.2972,4.41863 -1.9296,6.63256 -0.4357,1.52548 -0.8714,3.05098 -1.3203,4.62268 -1.0724,0 -2.1447,0 -3.2498,0 -0.1098,-2.36498 -0.1098,-2.36498 -0.2209,-4.77774 -3.1692,-81.58616 -3.1692,-81.58616 -37.8951,-154.22124 -2.5071,-3.39792 -2.5071,-3.39792 -4.9954,-7.58095 -2.3855,-4.19208 -2.3855,-4.19208 -6.7534,-8.17762 -1.2401,-1.22703 -2.4802,-2.45405 -3.7578,-3.71825 0,-1.06121 0,-2.12241 0,-3.21578 -1.0054,-0.3648 -2.0108,-0.72958 -3.0468,-1.10544 -3.4529,-2.11035 -3.4529,-2.11035 -4.9763,-6.13006 -1.3275,-4.34347 -1.3275,-4.34347 -5.4839,-5.72812 -2.1617,-0.74615 -2.1617,-0.74615 -4.3672,-1.5074 -4.5701,-3.21577 -4.5701,-3.21577 -8.1247,-6.43156 0,-1.06121 0,-2.12241 0,-3.21578 -1.3404,-0.36479 -2.681,-0.72957 -4.0622,-1.10542 -5.8912,-2.18603 -10.6278,-4.9605 -15.8684,-8.34721 -2.8266,-1.88039 -2.8266,-1.88039 -6.0681,-3.41049 0,-1.0612 0,-2.12241 0,-3.21577 -1.9773,-0.46428 -3.9547,-0.92857 -5.9919,-1.4069 -5.2496,-1.29172 -10.165,-2.87437 -15.1322,-5.02467 0,-1.0612 0,-2.12241 0,-3.21578 -1.4745,-0.1658 -2.9492,-0.33163 -4.4685,-0.50246 -7.2417,-1.00292 -14.2171,-2.89483 -21.2701,-4.77343 -14.3263,-3.22426 -28.70158,-3.1496 -43.32068,-3.16553 -1.1644,-0.003 -2.3286,-0.003 -3.5282,-0.006 -16.9917,0.006 -32.7681,1.03193 -49.2819,5.23216 -3.9928,0.81269 -7.9874,1.61673 -11.98388,2.41183 -9.16102,1.96478 -18.10083,4.37 -27.01434,7.23552 0,1.06121 0,2.1224 0,3.21579 -1.16249,0.39379 -2.32508,0.7876 -3.52275,1.19334 -24.07122,8.93591 -44.55384,26.74173 -59.84939,47.04335 -0.80434,2.38771 -0.80434,2.38771 -1.62492,4.82368 -1.0724,0 -2.14488,0 -3.24985,0 -0.60951,1.21873 -0.60951,1.21873 -1.23141,2.46207 -1.62465,3.19516 -3.2826,6.37379 -4.95086,9.54684 -6.71435,12.86825 -12.58676,25.44965 -16.56664,39.44356 -0.46503,1.58352 -0.93006,3.16705 -1.40918,4.79854 -4.80253,17.47002 -5.33065,35.05287 -5.34761,53.0807 -0.009,1.84181 -0.0162,3.68361 -0.0242,5.58123 -0.0251,6.11731 -0.0386,12.23459 -0.0521,18.35194 -0.0153,4.40666 -0.0314,8.81334 -0.0485,13.22 -0.035,9.45943 -0.0646,18.91888 -0.0905,28.37835 -0.0368,13.6765 -0.0826,27.35296 -0.13049,41.02944 -0.0772,22.19364 -0.14762,44.38729 -0.21358,66.58095 -0.0637,21.54849 -0.13138,43.09692 -0.20308,64.64543 0,1.3301 -0.01,2.6602 -0.0135,4.0304 -0.0224,6.6734 -0.0449,13.3467 -0.0673,20.02 -0.18495,55.28854 -0.35851,110.57714 -0.5248,165.86584 -4.1266,1.0863 -8.25652,2.1556 -12.39004,3.2157 -1.73745,0.4602 -1.73745,0.4602 -3.51009,0.9296 -1.71233,0.4352 -1.71233,0.4352 -3.45929,0.8793 -1.03812,0.2695 -2.07632,0.5389 -3.14593,0.8165 -4.44554,0.7513 -8.74247,0.6792 -13.24293,0.5905 -0.22372,-65.8874 -0.39521,-131.7747 -0.49788,-197.66224 -0.0117,-7.7976 -0.0251,-15.59548 -0.0377,-23.39326 0,-1.55225 -0.009,-3.10451 -0.009,-4.70378 -0.0422,-25.05682 -0.11909,-50.11344 -0.20892,-75.17015 -0.0915,-25.75524 -0.14547,-51.51039 -0.16512,-77.26579 -0.0135,-15.86265 -0.0556,-31.72469 -0.13479,-47.58716 -0.0521,-10.91203 -0.0673,-21.82376 -0.0547,-32.7359 0.009,-6.27398 0,-12.54691 -0.0556,-18.82068 -0.30287,-37.71364 2.04895,-74.89606 22.28621,-107.93308 0.88394,-1.53586 1.76788,-3.0717 2.67856,-4.65409 12.9484,-21.5048 30.46457,-35.9687 50.94396,-50.01418 0.91149,-0.63269 1.82289,-1.26536 2.76193,-1.91722 67.86739,-46.45278 172.12748,-48.80006 245.85179,-17.37745 z"
     fill="#058AAE"
     id="path5"
     style="fill:#000000;fill-opacity:1;stroke-width:1.61639" />
  <path
     d="m 361.64746,455.9898 c 1.24218,0.0598 2.48427,0.11969 3.76405,0.18136 23.53019,1.30898 53.02198,3.7956 74.23248,14.28965 0,1.0612 0,2.12242 0,3.21578 1.74266,0.3648 3.48541,0.72958 5.28102,1.10543 12.89447,3.17848 25.23937,8.84877 36.96704,14.97347 0,1.06121 0,2.12241 0,3.21579 1.36046,0.65599 1.36046,0.65599 2.74838,1.32525 4.00581,2.0188 7.89227,4.16945 11.77442,6.41272 1.35517,0.77311 2.71042,1.5462 4.10668,2.34274 4.69915,3.17396 8.30849,6.75947 12.24413,10.82185 1.49551,1.44259 2.99112,2.88517 4.53196,4.37145 1.52073,1.47576 3.04146,2.95149 4.60824,4.47196 1.52907,1.47574 3.05815,2.95147 4.63354,4.47194 3.73695,3.98397 6.30531,7.69726 8.97517,12.4109 1.03892,1.1607 2.07793,2.32139 3.14834,3.51726 3.78165,5.10279 5.8113,10.05187 8.02303,15.95328 1.51275,3.84611 3.16468,7.52378 4.91649,11.26444 12.8706,28.71777 12.69498,58.88719 12.47889,89.71826 -0.0359,6.38827 -0.0233,12.7765 -0.017,19.16484 0,11.0281 -0.0206,22.0558 -0.0673,33.0838 -0.0664,15.94393 -0.087,31.88766 -0.0974,47.8317 -0.0179,25.87754 -0.0718,51.75487 -0.14869,77.63229 -0.0745,25.1149 -0.13219,50.22976 -0.16656,75.34471 0,1.55208 0,3.10407 -0.009,4.70317 -0.0108,7.78718 -0.0206,15.57442 -0.0314,23.36162 -0.0843,64.44814 -0.22695,128.89614 -0.40894,193.34404 -7.97403,0.1299 -13.63258,-0.5472 -21.12399,-3.2158 -2.53596,-0.6041 -5.07991,-1.1761 -7.62951,-1.7209 -1.31155,-0.2822 -2.62301,-0.5643 -3.97423,-0.8551 -0.99683,-0.2111 -1.99357,-0.4222 -3.02055,-0.6398 0,-0.9543 0,-1.9086 -0.009,-2.8918 -0.0948,-56.6214 -0.21484,-113.2429 -0.3673,-169.86424 -0.0179,-6.8062 -0.0368,-13.6123 -0.0547,-20.4185 0,-2.0324 0,-2.0324 -0.0108,-4.1058 -0.0574,-21.90783 -0.0979,-43.81567 -0.13201,-65.72354 -0.035,-22.49747 -0.0888,-44.99484 -0.15983,-67.49222 -0.0431,-13.87008 -0.0718,-27.74005 -0.0826,-41.61018 -0.01,-9.52514 -0.035,-19.05014 -0.0754,-28.57519 -0.0224,-5.48666 -0.0377,-10.97303 -0.0314,-16.45972 0.23934,-30.5533 0.23934,-30.5533 -5.58156,-60.40221 -0.52148,-1.83973 -1.04287,-3.67948 -1.58014,-5.57497 -4.89514,-16.94655 -11.30652,-32.6989 -20.94666,-47.54821 -1.84712,-3.15297 -1.84712,-3.15297 -1.84712,-6.36875 -1.07248,0 -2.14487,0 -3.24984,0 -1.5805,-2.30506 -1.5805,-2.30506 -3.35143,-5.52712 -6.21279,-10.2704 -14.9611,-18.31301 -24.37383,-25.72625 -1.03901,-0.82906 -2.07793,-1.65812 -3.14835,-2.51233 0,-1.0612 0,-2.1224 0,-3.21577 -0.95977,-0.20377 -1.91945,-0.40753 -2.9083,-0.61748 -5.66564,-1.56243 -10.44546,-4.78029 -15.47368,-7.72346 -47.24479,-26.84576 -94.30229,-25.82194 -147.36043,-25.42475 0,1.06119 0,2.12241 0,3.21578 -1.04107,0.17617 -2.08206,0.35235 -3.15472,0.53388 -8.78572,1.59361 -16.29301,3.84202 -24.46904,7.50557 -1.74275,0.46427 -3.4855,0.92856 -5.28102,1.40689 -23.37503,6.93901 -43.92934,21.22074 -60.85852,38.43236 -3.73229,3.57378 -3.73229,3.57378 -6.98213,3.57378 -0.40213,0.87052 -0.80434,1.74105 -1.21867,2.63794 -2.48598,4.64305 -5.42972,8.77448 -8.53086,13.03899 -1.13952,1.58352 -2.27895,3.16704 -3.45293,4.79854 -1.00545,1.20215 -2.01089,2.4043 -3.04676,3.64288 -1.07249,0 -2.14497,0 -3.24985,0 -0.44197,1.1607 -0.88394,2.32139 -1.33928,3.51726 -1.8717,4.4302 -4.05499,8.4071 -6.48075,12.56165 -13.67996,24.60307 -20.28833,51.06358 -23.05358,78.78661 -1.07248,0 -2.14488,0 -3.24984,0 -1.16357,21.435 -2.2365,42.87315 -3.24985,64.31561 -23.11271,-34.30558 -21.78357,-96.95793 -15.84306,-135.69714 2.27249,-10.81009 5.56676,-21.14393 9.34337,-31.52344 0.65816,-1.82498 0.65816,-1.82498 1.32977,-3.68684 5.34841,-14.65395 11.03174,-28.29905 19.79422,-41.33408 0.5362,-1.06122 1.07249,-2.12242 1.62493,-3.21577 1.07248,0 2.14487,0 3.24984,0 0.75409,-1.89029 0.75409,-1.89029 1.52343,-3.81875 1.72641,-4.22071 1.72641,-4.22071 3.35134,-7.43649 1.07248,0 2.14496,0 3.24984,0 0.44197,-0.92441 0.88394,-1.84882 1.33937,-2.80124 5.87169,-11.15701 14.20073,-19.33904 24.15172,-26.94473 0.90763,-0.69666 1.81526,-1.39336 2.75036,-2.11114 4.52101,-3.34031 8.34348,-5.96871 14.0067,-6.73225 0,-1.06122 0,-2.12242 0,-3.21579 18.18007,-10.49391 36.77258,-17.97234 56.87236,-24.11835 1.37509,-0.42736 2.75027,-0.85471 4.16699,-1.29503 12.03153,-3.51519 23.99064,-5.05037 36.45615,-6.24195 3.11506,-0.30373 3.11506,-0.30373 6.29302,-0.61355 16.38913,-1.50981 32.51388,-2.34797 48.95442,-1.49681 z"
     fill="#058AAE"
     id="path6"
     style="fill:#000000;fill-opacity:1;stroke-width:1.61639" />
  <path
     d="m 292.42113,485.71025 c 5.48419,1.90668 9.17637,3.65914 12.99938,8.03946 -4.6716,-0.40198 -4.6716,-0.40198 -9.74944,-1.6079 -2.23435,-3.31627 -2.23435,-3.31627 -3.24994,-6.43156 z"
     fill="#CCEFF6"
     id="path383"
     style="fill:#000000;fill-opacity:1;stroke-width:1.61639" />
</svg>
