<?xml version="1.0" encoding="UTF-8" standalone="no"?>
<svg
   version="1.1"
   width="184.85376"
   height="184.13008"
   id="svg140"
   sodipodi:docname="rhs_logo.svg"
   inkscape:version="1.3 (0e150ed, 2023-07-21)"
   xmlns:inkscape="http://www.inkscape.org/namespaces/inkscape"
   xmlns:sodipodi="http://sodipodi.sourceforge.net/DTD/sodipodi-0.dtd"
   xmlns="http://www.w3.org/2000/svg"
   xmlns:svg="http://www.w3.org/2000/svg">
  <defs
     id="defs140" />
  <sodipodi:namedview
     id="namedview140"
     pagecolor="#ffffff"
     bordercolor="#000000"
     borderopacity="0.25"
     inkscape:showpageshadow="2"
     inkscape:pageopacity="0.0"
     inkscape:pagecheckerboard="0"
     inkscape:deskcolor="#d1d1d1"
     inkscape:zoom="2.2019579"
     inkscape:cx="-6.8121195"
     inkscape:cy="77.885233"
     inkscape:window-width="1392"
     inkscape:window-height="678"
     inkscape:window-x="0"
     inkscape:window-y="25"
     inkscape:window-maximized="0"
     inkscape:current-layer="svg140">
    <inkscape:page
       x="0"
       y="0"
       width="184.85376"
       height="184.13008"
       id="page143"
       margin="0 0 0 0.45414165"
       bleed="0" />
  </sodipodi:namedview>
  <path
     style="fill:#000000;fill-opacity:1;stroke:#000000;stroke-width:2.65581;stroke-linecap:round;stroke-linejoin:bevel;stroke-dasharray:none;stroke-opacity:1"
     d="m 41.893237,30.038858 29.14533,-1.718345 23.197286,0.572782 28.550527,-0.572782 c 3.81501,-0.786909 31.04481,0.326382 43.42058,14.89233 5.35322,6.300602 4.75842,16.037894 2.97401,25.202405 -1.7844,9.164512 -12.49085,22.338496 -19.62849,25.775189 -7.13762,3.43669 -18.43887,6.873383 -18.43887,6.873383 0,0 13.68046,24.05684 21.41289,33.79413 7.73243,9.7373 23.61041,15.86293 23.61041,15.86293 0,0 2.79233,11.63061 -0.77649,14.49453 -3.56881,2.86391 -54.35845,2.86391 -59.71168,-0.57279 -5.35322,-3.43668 -21.412887,-31.50301 -21.412887,-31.50301 l -6.542816,-17.18346 h -4.16361 l -3.56882,27.49354 c 0,0 9.51683,-1.14557 12.490846,2.8639 2.97401,4.00948 4.16363,16.0379 -1.7844,18.90182 -5.948026,2.86391 -77.324336,-1.14557 -77.324336,-1.14557 0,0 -2.3792,-2.29113 -3.5688003,-5.15504 -1.18961,-2.8639 -2.37922,-10.88286 4.7584203,-13.17399 7.13762,-2.29112 19.03366,-3.43669 19.03366,-3.43669 0,0 21.4129,-75.034435 20.2233,-84.771728 -1.18961,-9.737294 -14.27527,-3.436691 -16.05967,-11.455639 -1.7844,-8.018947 4.16361,-16.037895 4.16361,-16.037895 z"
     id="path142"
     sodipodi:nodetypes="ccccssscscssccccsscsscssc" />
  <path
     style="fill:#ffffff;fill-opacity:1;stroke:#000000;stroke-width:2.65581;stroke-linecap:round;stroke-linejoin:bevel;stroke-dasharray:none;stroke-opacity:1"
     d="m 86.503427,4.8364521 c 0,0 -27.95573,58.9965419 -30.33494,62.4332329 -2.37921,3.436693 11.30126,-4.009473 11.30126,-4.009473 l -24.38691,65.297148 16.65447,-10.88286 -18.43887,61.28765 5.35322,-2.29113 38.66216,-85.917274 -3.56882,-1.145565 -9.96055,7.04835 19.477396,-52.298124 -13.680456,9.164512 0.52403,-4.834574 z"
     id="path141"
     sodipodi:nodetypes="cscccccccccccc" />
  <path
     style="fill:#ffffff;fill-opacity:1;stroke:#000000;stroke-width:2.65581;stroke-linecap:round;stroke-linejoin:bevel;stroke-dasharray:none;stroke-opacity:1"
     d="m 99.589073,50.086226 -5.94803,38.949173 c 0,0 16.654477,0 23.197297,-8.018948 6.54283,-8.018947 7.13764,-25.202405 2.97401,-29.78466 -4.16361,-4.582256 -20.223277,-1.145565 -20.223277,-1.145565 z"
     id="path143" />
</svg>
