<?xml version="1.0" standalone="no"?>
<!DOCTYPE svg PUBLIC "-//W3C//DTD SVG 20010904//EN"
 "http://www.w3.org/TR/2001/REC-SVG-20010904/DTD/svg10.dtd">
<svg version="1.0" xmlns="http://www.w3.org/2000/svg"
 width="1200.000000pt" height="1271.000000pt" viewBox="0 0 1200.000000 1271.000000"
 preserveAspectRatio="xMidYMid meet">

<g transform="translate(0.000000,1271.000000) scale(0.100000,-0.100000)"
fill="#000000" stroke="none">
<path d="M2080 12015 l0 -405 333 -2 332 -3 3 -1272 c2 -1070 4 -1273 16
-1273 7 0 33 7 57 16 142 51 542 151 812 204 l57 11 0 1155 0 1154 335 0 335
0 0 410 0 410 -1140 0 -1140 0 0 -405z"/>
<path d="M7690 12015 l0 -405 340 0 340 0 0 -1120 c0 -781 3 -1120 11 -1120
57 0 802 -120 906 -146 l23 -6 0 1191 0 1191 335 0 335 0 0 410 0 410 -1145 0
-1145 0 0 -405z"/>
<path d="M4885 10817 c-3 -6 -4 -190 -3 -407 l3 -395 338 -3 337 -2 0 -3570 0
-3570 -337 -2 -338 -3 -3 -407 -2 -408 1145 0 1145 0 0 410 0 410 -335 0 -335
0 0 3570 0 3570 335 0 335 0 0 410 0 410 -1140 0 c-904 0 -1142 -3 -1145 -13z"/>
<path d="M6760 8760 l0 -469 43 -5 c23 -3 114 -8 202 -11 518 -19 1198 -87
1704 -171 777 -128 1492 -328 2004 -561 67 -30 146 -66 175 -79 l52 -24 280
374 c154 206 280 379 280 384 0 13 -207 118 -385 197 -990 437 -2219 701
-3720 799 -126 9 -309 18 -405 21 -96 3 -187 8 -202 10 l-28 5 0 -470z"/>
<path d="M5170 9214 c-19 -2 -102 -8 -185 -14 -672 -49 -1387 -173 -1970 -341
-568 -164 -1119 -411 -1526 -682 -623 -417 -1018 -942 -1109 -1474 -24 -141
-27 -367 -5 -498 64 -390 261 -743 609 -1090 572 -570 1463 -990 2631 -1240
464 -99 942 -162 1598 -209 l77 -6 0 469 0 470 -52 5 c-29 3 -120 10 -203 16
-862 63 -1719 248 -2340 505 -742 306 -1236 717 -1367 1135 -30 97 -32 264 -4
354 71 228 246 455 511 661 646 501 1687 838 3000 970 152 15 401 35 443 35
l22 0 0 470 0 470 -47 -2 c-27 0 -64 -3 -83 -4z"/>
<path d="M8370 6441 l0 -1448 123 18 c182 28 492 84 665 120 l152 32 -2 1281
-3 1280 -175 38 c-174 37 -696 128 -738 128 l-22 0 0 -1449z"/>
<path d="M3475 7739 c-198 -54 -478 -147 -625 -207 l-95 -38 -3 -1055 -2
-1055 119 -47 c221 -88 739 -247 802 -247 18 0 19 42 19 1350 0 1279 -1 1350
-17 1349 -10 0 -99 -22 -198 -50z"/>
<path d="M10836 5393 c-69 -37 -359 -158 -523 -217 -835 -303 -1934 -500
-3153 -566 -107 -5 -241 -13 -297 -16 l-103 -6 0 -470 0 -470 93 6 c50 3 151
8 222 11 1687 74 3189 396 4228 907 l147 73 -282 379 c-156 209 -287 381 -293
382 -5 2 -23 -4 -39 -13z"/>
<path d="M2753 3263 c4 -508 6 -570 25 -693 93 -587 337 -1065 739 -1450 206
-198 412 -340 688 -475 354 -174 690 -268 1135 -321 183 -21 915 -31 1175 -15
843 51 1525 325 2032 815 217 209 368 416 498 681 123 251 191 468 236 751 20
125 22 189 26 622 5 467 4 484 -14 478 -35 -10 -428 -75 -643 -106 -118 -17
-230 -33 -247 -36 l-33 -5 0 -325 c0 -349 -8 -460 -44 -624 -66 -295 -201
-536 -421 -748 -291 -283 -693 -462 -1210 -539 -104 -16 -192 -18 -665 -18
-578 0 -637 3 -876 51 -411 81 -738 247 -994 504 -170 170 -294 369 -373 596
-80 230 -97 376 -97 839 l0 344 -57 11 c-237 47 -514 116 -748 185 -66 19
-124 35 -128 35 -5 0 -7 -250 -4 -557z"/>
</g>
</svg>
